<svg width="16" height="9" viewBox="0 0 16 9" fill="none" xmlns="http://www.w3.org/2000/svg">
<path d="M15.0611 0.853986C14.9218 0.714597 14.7564 0.604021 14.5744 0.528579C14.3923 0.453137 14.1972 0.414307 14.0001 0.414307C13.8031 0.414307 13.6079 0.453137 13.4259 0.528579C13.2438 0.604021 13.0784 0.714597 12.9391 0.853986L8.35313 5.43899C8.25936 5.53272 8.13221 5.58538 7.99963 5.58538C7.86704 5.58538 7.73989 5.53272 7.64613 5.43899L3.06113 0.853986C2.77986 0.572592 2.39834 0.414453 2.00048 0.414359C1.60262 0.414265 1.22102 0.572224 0.939627 0.853486C0.658232 1.13475 0.500094 1.51627 0.5 1.91413C0.499906 2.31199 0.657865 2.69359 0.939127 2.97499L5.52513 7.56099C5.85014 7.88603 6.23599 8.14387 6.66065 8.31978C7.08531 8.4957 7.54047 8.58624 8.00013 8.58624C8.45978 8.58624 8.91494 8.4957 9.3396 8.31978C9.76426 8.14387 10.1501 7.88603 10.4751 7.56099L15.0611 2.97499C15.3423 2.6937 15.5003 2.31223 15.5003 1.91449C15.5003 1.51674 15.3423 1.13528 15.0611 0.853986Z" fill="black"/>
</svg>
