<svg width="20" height="20" viewBox="0 0 20 20" fill="none" xmlns="http://www.w3.org/2000/svg">
<g clip-path="url(#clip0_2136_1966)">
<path d="M4.88739 4.75646H5.17353C5.60837 4.75646 5.96086 4.40385 5.96086 3.96912V1.79641V0.983707C5.96086 0.548983 5.60837 0.196411 5.17353 0.196411H4.88739C4.45259 0.196411 4.1001 0.548983 4.1001 0.983707V1.79645V3.96912C4.1001 4.40385 4.45259 4.75646 4.88739 4.75646Z" fill="black"/>
<path d="M14.9861 4.73693H15.2722C15.707 4.73693 16.0595 4.38436 16.0595 3.94959V1.59018V0.964135C16.0595 0.529452 15.707 0.17688 15.2722 0.17688H14.9861C14.5512 0.17688 14.1987 0.529452 14.1987 0.964135V1.59018V3.94955C14.1988 4.38436 14.5513 4.73693 14.9861 4.73693Z" fill="black"/>
<path d="M18.7201 1.79639H16.6994V4.15576C16.6994 4.94281 16.0591 5.37691 15.2722 5.37691H14.9861C14.199 5.37691 13.5587 4.7366 13.5587 3.94955V1.79639H6.60079V3.96906C6.60079 4.75611 5.96052 5.39642 5.17347 5.39642H4.88734C4.10033 5.39642 3.46006 4.75611 3.46006 3.96906V1.79639H1.27996C0.574202 1.79639 0 2.37059 0 3.07639V18.5431C0 19.2489 0.574202 19.8231 1.27996 19.8231H18.7201C19.4258 19.8231 20 19.2489 20 18.5431V3.07639C20.0001 2.37063 19.4258 1.79639 18.7201 1.79639ZM18.7201 18.5431H1.28001L1.27996 6.86304H18.7203L18.721 18.5431C18.7209 18.5431 18.7207 18.5431 18.7201 18.5431Z" fill="black"/>
<path d="M10.6606 10.7809H12.9588C13.0499 10.7809 13.1238 10.707 13.1238 10.6159V8.62584C13.1238 8.53474 13.0499 8.46088 12.9588 8.46088H10.6606C10.5695 8.46088 10.4956 8.53474 10.4956 8.62584V10.6159C10.4956 10.707 10.5695 10.7809 10.6606 10.7809Z" fill="black"/>
<path d="M14.4115 10.7809H16.7098C16.8009 10.7809 16.8748 10.707 16.8748 10.6159V8.62584C16.8748 8.53474 16.8009 8.46088 16.7098 8.46088H14.4115C14.3204 8.46088 14.2466 8.53474 14.2466 8.62584V10.6159C14.2466 10.707 14.3204 10.7809 14.4115 10.7809Z" fill="black"/>
<path d="M3.15959 14.0389H5.45781C5.54891 14.0389 5.62277 13.9651 5.62277 13.874V11.8838C5.62277 11.7927 5.54891 11.7189 5.45781 11.7189H3.15959C3.06849 11.7189 2.99463 11.7927 2.99463 11.8838V13.874C2.99463 13.9651 3.06849 14.0389 3.15959 14.0389Z" fill="black"/>
<path d="M6.91008 14.0389H9.20829C9.2994 14.0389 9.37326 13.9651 9.37326 13.874V11.8838C9.37326 11.7927 9.2994 11.7189 9.20829 11.7189H6.91008C6.81898 11.7189 6.74512 11.7927 6.74512 11.8838V13.874C6.74512 13.9651 6.81898 14.0389 6.91008 14.0389Z" fill="black"/>
<path d="M10.6611 14.0389H12.9593C13.0504 14.0389 13.1242 13.9651 13.1242 13.874V11.8838C13.1242 11.7927 13.0504 11.7189 12.9593 11.7189H10.6611C10.57 11.7189 10.4961 11.7927 10.4961 11.8838V13.874C10.4961 13.9651 10.57 14.0389 10.6611 14.0389Z" fill="black"/>
<path d="M14.4115 14.0389H16.7098C16.8009 14.0389 16.8748 13.9651 16.8748 13.874V11.8838C16.8748 11.7927 16.8009 11.7189 16.7098 11.7189H14.4115C14.3204 11.7189 14.2466 11.7927 14.2466 11.8838V13.874C14.2466 13.9651 14.3204 14.0389 14.4115 14.0389Z" fill="black"/>
<path d="M5.45776 14.9769H3.15959C3.06849 14.9769 2.99463 15.0508 2.99463 15.1419V17.132C2.99463 17.2231 3.06849 17.297 3.15959 17.297H5.45781C5.54891 17.297 5.62277 17.2231 5.62277 17.132V15.1419C5.62273 15.0508 5.54887 14.9769 5.45776 14.9769Z" fill="black"/>
<path d="M9.20829 14.9769H6.91008C6.81898 14.9769 6.74512 15.0508 6.74512 15.1419V17.132C6.74512 17.2231 6.81898 17.297 6.91008 17.297H9.20829C9.2994 17.297 9.37326 17.2231 9.37326 17.132V15.1419C9.37326 15.0508 9.2994 14.9769 9.20829 14.9769Z" fill="black"/>
<path d="M12.9593 14.9769H10.6611C10.57 14.9769 10.4961 15.0508 10.4961 15.1419V17.132C10.4961 17.2231 10.57 17.297 10.6611 17.297H12.9593C13.0504 17.297 13.1243 17.2231 13.1243 17.132V15.1419C13.1243 15.0508 13.0504 14.9769 12.9593 14.9769Z" fill="black"/>
<path d="M16.7098 14.9769H14.4115C14.3204 14.9769 14.2466 15.0508 14.2466 15.1419V17.132C14.2466 17.2231 14.3204 17.297 14.4115 17.297H16.7098C16.8009 17.297 16.8748 17.2231 16.8748 17.132V15.1419C16.8748 15.0508 16.8009 14.9769 16.7098 14.9769Z" fill="black"/>
</g>
<defs>
<clipPath id="clip0_2136_1966">
<rect width="20" height="20" fill="white"/>
</clipPath>
</defs>
</svg>
