<svg width="16" height="16" viewBox="0 0 16 16" fill="none" xmlns="http://www.w3.org/2000/svg">
<path d="M6.55196 3.33333L5.21863 4.66667H2.66634V12.6667H13.333V4.66667H10.7807L9.44741 3.33333H6.55196ZM5.99967 2H9.99967L11.333 3.33333H13.9997C14.3679 3.33333 14.6663 3.63181 14.6663 4V13.3333C14.6663 13.7015 14.3679 14 13.9997 14H1.99967C1.63149 14 1.33301 13.7015 1.33301 13.3333V4C1.33301 3.63181 1.63149 3.33333 1.99967 3.33333H4.66634L5.99967 2ZM7.99967 12C5.97463 12 4.33301 10.3584 4.33301 8.33333C4.33301 6.30829 5.97463 4.66667 7.99967 4.66667C10.0247 4.66667 11.6663 6.30829 11.6663 8.33333C11.6663 10.3584 10.0247 12 7.99967 12ZM7.99967 10.6667C9.28834 10.6667 10.333 9.622 10.333 8.33333C10.333 7.04467 9.28834 6 7.99967 6C6.71101 6 5.66634 7.04467 5.66634 8.33333C5.66634 9.622 6.71101 10.6667 7.99967 10.6667Z" fill="black"/>
</svg>
