<svg width="20" height="20" viewBox="0 0 20 20" fill="none" xmlns="http://www.w3.org/2000/svg">
<g clip-path="url(#clip0_2136_747)">
<path d="M14.5835 1.59711C13.6451 1.6117 12.7272 1.87365 11.9224 2.3565C11.1177 2.83935 10.4546 3.526 10.0001 4.34711C9.54566 3.526 8.88257 2.83935 8.07783 2.3565C7.27308 1.87365 6.35517 1.6117 5.41679 1.59711C3.92091 1.6621 2.51155 2.31649 1.49661 3.4173C0.481678 4.51812 -0.0563308 5.97588 0.000128002 7.47211C0.000128002 11.2613 3.98846 15.3996 7.33346 18.2054C8.08031 18.833 9.02459 19.1771 10.0001 19.1771C10.9757 19.1771 11.9199 18.833 12.6668 18.2054C16.0118 15.3996 20.0001 11.2613 20.0001 7.47211C20.0566 5.97588 19.5186 4.51812 18.5036 3.4173C17.4887 2.31649 16.0793 1.6621 14.5835 1.59711Z" fill="#FF0000"/>
</g>
<defs>
<clipPath id="clip0_2136_747">
<rect width="20" height="20" fill="white"/>
</clipPath>
</defs>
</svg>
