<svg width="20" height="20" viewBox="0 0 20 20" fill="none" xmlns="http://www.w3.org/2000/svg">
<path d="M2.55336 6.25758C3.92457 3.53406 6.74269 1.66663 10.0003 1.66663C12.2465 1.66663 14.1328 2.49242 15.5761 3.83708L13.1859 6.22724C12.3223 5.4015 11.2237 4.98102 10.0003 4.98102C7.82984 4.98102 5.99269 6.44693 5.33745 8.41663C5.17074 8.91663 5.07604 9.45071 5.07604 9.99996C5.07604 10.5492 5.17074 11.0833 5.33745 11.5833C5.99269 13.553 7.82984 15.0189 10.0003 15.0189C11.1215 15.0189 12.0761 14.7235 12.8223 14.2235C13.7048 13.6325 14.292 12.75 14.4852 11.7083H10.0003V8.48479H17.8487C17.9473 9.03021 18.0003 9.59846 18.0003 10.1894C18.0003 12.7272 17.0912 14.8635 15.5154 16.3144C14.1367 17.5871 12.2503 18.3333 10.0003 18.3333C6.74269 18.3333 3.92457 16.4659 2.55336 13.7424C1.98898 12.6174 1.66699 11.3446 1.66699 9.99996C1.66699 8.65529 1.98898 7.38255 2.55336 6.25758Z" fill="#5C5C5C"/>
</svg>
