<svg width="20" height="20" viewBox="0 0 20 20" fill="none" xmlns="http://www.w3.org/2000/svg">
<path d="M13.148 6.83994C12.7541 6.80925 12.3308 6.90362 11.6828 7.15056C11.7372 7.12981 11.0643 7.39311 10.8756 7.45898C10.4575 7.60494 10.1133 7.68498 9.72751 7.68498C9.34559 7.68498 8.99342 7.60868 8.58951 7.47236C8.46001 7.42868 8.32981 7.38033 8.1687 7.31742C8.09961 7.29043 7.84965 7.19122 7.79501 7.16982C7.25489 6.9583 6.95096 6.87862 6.69871 6.88484C5.73822 6.89708 4.82931 7.45175 4.30172 8.37017C3.22498 10.2396 3.8212 13.619 5.39516 15.8958C6.23317 17.0991 6.69186 17.5292 6.87633 17.5233C7.06159 17.5152 7.19781 17.4761 7.5294 17.3355C7.59538 17.3074 7.59538 17.3074 7.66801 17.2764C8.50609 16.9193 9.09284 16.7617 9.97751 16.7617C10.8283 16.7617 11.3966 16.9164 12.201 17.2633C12.2748 17.2952 12.2748 17.2952 12.3411 17.3237C12.6725 17.4657 12.7921 17.4968 13.001 17.4918C13.2989 17.4872 13.6666 17.1438 14.4823 15.9468C14.7056 15.6206 14.903 15.2777 15.0743 14.9307C14.9641 14.8397 14.8547 14.7431 14.7476 14.6411C13.6735 13.6173 13.0092 12.2371 12.9909 10.5326C12.9793 9.18217 13.4211 8.01239 14.1655 7.04831C13.8574 6.9285 13.5177 6.86504 13.148 6.83994ZM13.2775 5.17832C13.8675 5.21832 15.5575 5.39832 16.6575 7.00832C16.5675 7.05832 14.6375 8.17831 14.6575 10.5183C14.6875 13.3183 17.1075 14.2483 17.1375 14.2583C17.1175 14.3283 16.7475 15.5883 15.8575 16.8883C15.0875 18.0183 14.2875 19.1383 13.0275 19.1583C11.7875 19.1883 11.3875 18.4283 9.97751 18.4283C8.55751 18.4283 8.11749 19.1383 6.94749 19.1883C5.72749 19.2283 4.80749 17.9683 4.02749 16.8483C2.43749 14.5483 1.22749 10.3683 2.85749 7.53831C3.66749 6.12831 5.10749 5.23832 6.67749 5.21832C7.86749 5.18832 8.99751 6.01832 9.72751 6.01832C10.4475 6.01832 11.7375 5.05832 13.2775 5.17832ZM12.3275 3.65832C11.6775 4.43832 10.6175 5.04832 9.58751 4.96832C9.44751 3.90832 9.96751 2.79832 10.5675 2.10832C11.2375 1.32832 12.3575 0.748313 13.2875 0.708313C13.4075 1.78832 12.9775 2.87832 12.3275 3.65832Z" fill="#5C5C5C"/>
</svg>
