<svg width="20" height="20" viewBox="0 0 20 20" fill="none" xmlns="http://www.w3.org/2000/svg">
<g clip-path="url(#clip0_2136_570)">
<path d="M17.5 20.0005H15V15.8338C15 15.3918 14.8244 14.9679 14.5118 14.6553C14.1993 14.3428 13.7754 14.1672 13.3333 14.1672H6.66667C6.22464 14.1672 5.80072 14.3428 5.48816 14.6553C5.17559 14.9679 5 15.3918 5 15.8338V20.0005H2.5V15.8338C2.50132 14.7292 2.94073 13.6701 3.72185 12.889C4.50296 12.1079 5.562 11.6685 6.66667 11.6672H13.3333C14.438 11.6685 15.497 12.1079 16.2782 12.889C17.0593 13.6701 17.4987 14.7292 17.5 15.8338V20.0005Z" fill="#5C5C5C"/>
<path d="M10 9.99994C9.0111 9.99994 8.0444 9.7067 7.22215 9.15729C6.39991 8.60788 5.75904 7.82699 5.3806 6.91336C5.00217 5.99973 4.90315 4.99439 5.09608 4.02449C5.289 3.05458 5.76521 2.16367 6.46447 1.46441C7.16373 0.765145 8.05465 0.288941 9.02455 0.0960148C9.99446 -0.0969113 10.9998 0.00210539 11.9134 0.380544C12.827 0.758982 13.6079 1.39984 14.1573 2.22209C14.7068 3.04434 15 4.01103 15 4.99994C14.9987 6.32562 14.4715 7.59662 13.5341 8.53401C12.5967 9.47141 11.3257 9.99862 10 9.99994ZM10 2.49994C9.50555 2.49994 9.0222 2.64656 8.61108 2.92127C8.19995 3.19597 7.87952 3.58642 7.6903 4.04323C7.50108 4.50005 7.45158 5.00271 7.54804 5.48767C7.6445 5.97262 7.8826 6.41808 8.23223 6.76771C8.58187 7.11734 9.02732 7.35544 9.51228 7.4519C9.99723 7.54837 10.4999 7.49886 10.9567 7.30964C11.4135 7.12042 11.804 6.79999 12.0787 6.38887C12.3534 5.97774 12.5 5.49439 12.5 4.99994C12.5 4.3369 12.2366 3.70102 11.7678 3.23217C11.2989 2.76333 10.663 2.49994 10 2.49994Z" fill="#5C5C5C"/>
</g>
<defs>
<clipPath id="clip0_2136_570">
<rect width="20" height="20" fill="white"/>
</clipPath>
</defs>
</svg>
