<svg width="28" height="28" viewBox="0 0 28 28" fill="none" xmlns="http://www.w3.org/2000/svg">
<path d="M0 14C0 6.26801 6.26801 0 14 0C21.732 0 28 6.26801 28 14C28 21.732 21.732 28 14 28C6.26801 28 0 21.732 0 14Z" fill="#FF0000"/>
<mask id="mask0_2136_2270" style="mask-type:luminance" maskUnits="userSpaceOnUse" x="0" y="0" width="28" height="28">
<path fill-rule="evenodd" clip-rule="evenodd" d="M0 14C0 6.26801 6.26801 0 14 0C21.732 0 28 6.26801 28 14C28 21.732 21.732 28 14 28C6.26801 28 0 21.732 0 14Z" fill="white"/>
</mask>
<g mask="url(#mask0_2136_2270)">
<path fill-rule="evenodd" clip-rule="evenodd" d="M14.0006 6.53345C11.9727 6.53345 11.7182 6.54231 10.9218 6.57856C10.1269 6.61496 9.5843 6.7408 9.10954 6.92545C8.61845 7.11616 8.20187 7.37128 7.78684 7.78646C7.3715 8.20149 7.11639 8.61807 6.92505 9.10901C6.73994 9.58392 6.61394 10.1267 6.57816 10.9212C6.54254 11.7177 6.5332 11.9723 6.5332 14.0002C6.5332 16.028 6.54223 16.2817 6.57831 17.0782C6.61487 17.8731 6.74072 18.4157 6.92521 18.8904C7.11608 19.3815 7.37119 19.7981 7.78637 20.2131C8.20124 20.6285 8.61783 20.8842 9.10861 21.0749C9.58368 21.2596 10.1264 21.3854 10.9212 21.4218C11.7176 21.4581 11.9719 21.4669 13.9996 21.4669C16.0276 21.4669 16.2813 21.4581 17.0778 21.4218C17.8727 21.3854 18.4159 21.2596 18.891 21.0749C19.3819 20.8842 19.7979 20.6285 20.2127 20.2131C20.6281 19.7981 20.8832 19.3815 21.0745 18.8906C21.2581 18.4157 21.3841 17.8729 21.4214 17.0784C21.4572 16.2819 21.4665 16.028 21.4665 14.0002C21.4665 11.9723 21.4572 11.7179 21.4214 10.9214C21.3841 10.1265 21.2581 9.58392 21.0745 9.10916C20.8832 8.61807 20.6281 8.20149 20.2127 7.78646C19.7974 7.37112 19.3821 7.11601 18.8905 6.92545C18.4145 6.7408 17.8716 6.61496 17.0767 6.57856C16.2803 6.54231 16.0267 6.53345 13.9982 6.53345H14.0006ZM13.3307 7.87902C13.4608 7.87881 13.6007 7.87887 13.7517 7.87894L14.0006 7.87902C15.9942 7.87902 16.2305 7.88617 17.0178 7.92195C17.7458 7.95524 18.1409 8.07688 18.4041 8.17909C18.7525 8.31442 19.001 8.4762 19.2621 8.73754C19.5235 8.99887 19.6853 9.24776 19.8209 9.59621C19.9231 9.8591 20.0449 10.2542 20.078 10.9822C20.1138 11.7693 20.1216 12.0058 20.1216 13.9985C20.1216 15.9912 20.1138 16.2276 20.078 17.0147C20.0447 17.7427 19.9231 18.1379 19.8209 18.4008C19.6856 18.7492 19.5235 18.9973 19.2621 19.2585C19.0008 19.5198 18.7527 19.6816 18.4041 19.8169C18.1412 19.9196 17.7458 20.0409 17.0178 20.0742C16.2306 20.11 15.9942 20.1178 14.0006 20.1178C12.0068 20.1178 11.7705 20.11 10.9834 20.0742C10.2554 20.0406 9.86026 19.919 9.5969 19.8168C9.24845 19.6815 8.99956 19.5197 8.73822 19.2583C8.47689 18.997 8.31511 18.7487 8.17946 18.4001C8.07726 18.1372 7.95546 17.7421 7.92233 17.0141C7.88655 16.227 7.87939 15.9905 7.87939 13.9966C7.87939 12.0027 7.88655 11.7675 7.92233 10.9804C7.95562 10.2524 8.07726 9.85724 8.17946 9.59403C8.3148 9.24559 8.47689 8.99669 8.73822 8.73536C8.99956 8.47402 9.24845 8.31224 9.5969 8.1766C9.8601 8.07393 10.2554 7.95259 10.9834 7.91915C11.6722 7.88804 11.9391 7.8787 13.3307 7.87715V7.87902ZM17.0902 10.0145C17.0902 9.51968 17.4916 9.11881 17.9863 9.11881V9.11849C18.4809 9.11849 18.8823 9.51983 18.8823 10.0145C18.8823 10.5092 18.4809 10.9105 17.9863 10.9105C17.4916 10.9105 17.0902 10.5092 17.0902 10.0145ZM14.0004 10.1657C11.8829 10.1658 10.1661 11.8826 10.1661 14.0002C10.1661 16.1178 11.883 17.8339 14.0006 17.8339C16.1182 17.8339 17.8344 16.1178 17.8344 14.0002C17.8344 11.8826 16.118 10.1657 14.0004 10.1657ZM16.4895 14.0002C16.4895 12.6255 15.3751 11.5113 14.0006 11.5113C12.6259 11.5113 11.5117 12.6255 11.5117 14.0002C11.5117 15.3747 12.6259 16.4891 14.0006 16.4891C15.3751 16.4891 16.4895 15.3747 16.4895 14.0002Z" fill="white"/>
</g>
</svg>
