<svg width="18" height="18" viewBox="0 0 18 18" fill="none" xmlns="http://www.w3.org/2000/svg">
<path d="M12.2362 5.76361C12.3001 5.82746 12.3508 5.90328 12.3854 5.98674C12.42 6.0702 12.4378 6.15966 12.4378 6.25001C12.4378 6.34036 12.42 6.42982 12.3854 6.51328C12.3508 6.59674 12.3001 6.67257 12.2362 6.73642L6.73616 12.2364C6.67229 12.3003 6.59646 12.351 6.513 12.3855C6.42954 12.4201 6.34009 12.4379 6.24976 12.4379C6.15942 12.4379 6.06997 12.4201 5.98652 12.3855C5.90306 12.351 5.82723 12.3003 5.76335 12.2364C5.69947 12.1725 5.64881 12.0967 5.61424 12.0133C5.57967 11.9298 5.56187 11.8403 5.56187 11.75C5.56187 11.6597 5.57967 11.5702 5.61424 11.4868C5.64881 11.4033 5.69947 11.3275 5.76335 11.2636L11.2634 5.76361C11.3272 5.69968 11.403 5.64897 11.4865 5.61438C11.5699 5.57978 11.6594 5.56197 11.7498 5.56197C11.8401 5.56197 11.9296 5.57978 12.013 5.61438C12.0965 5.64897 12.1723 5.69968 12.2362 5.76361ZM16.5279 1.47189C16.081 1.02495 15.5504 0.670422 14.9665 0.428541C14.3826 0.18666 13.7568 0.0621643 13.1248 0.0621643C12.4927 0.0621643 11.8669 0.18666 11.283 0.428541C10.6991 0.670422 10.1685 1.02495 9.72163 1.47189L7.13835 4.05431C7.00935 4.18331 6.93688 4.35828 6.93688 4.54071C6.93688 4.72315 7.00935 4.89812 7.13835 5.02712C7.26735 5.15612 7.44232 5.2286 7.62476 5.2286C7.80719 5.2286 7.98216 5.15612 8.11116 5.02712L10.6944 2.449C11.3415 1.8162 12.2119 1.46408 13.1169 1.46906C14.0219 1.47405 14.8885 1.83573 15.5285 2.47562C16.1685 3.11551 16.5303 3.98197 16.5354 4.88697C16.5406 5.79198 16.1886 6.6625 15.5559 7.30962L12.9718 9.8929C12.8428 10.0218 12.7703 10.1966 12.7702 10.379C12.7701 10.5614 12.8425 10.7363 12.9714 10.8653C13.1002 10.9943 13.2751 11.0668 13.4575 11.0669C13.6398 11.067 13.8147 10.9946 13.9437 10.8657L16.5279 8.27814C16.9748 7.83125 17.3293 7.3007 17.5712 6.71679C17.8131 6.13288 17.9376 5.50704 17.9376 4.87501C17.9376 4.24298 17.8131 3.61715 17.5712 3.03323C17.3293 2.44932 16.9748 1.91877 16.5279 1.47189ZM9.88835 12.972L7.30507 15.5553C6.98717 15.8804 6.60794 16.1391 6.18936 16.3166C5.77077 16.4941 5.32113 16.5867 4.86648 16.5892C4.41184 16.5917 3.96121 16.504 3.54069 16.3312C3.12017 16.1583 2.73812 15.9038 2.41666 15.5822C2.0952 15.2607 1.84071 14.8786 1.66793 14.4581C1.49516 14.0375 1.40752 13.5869 1.41011 13.1322C1.41269 12.6776 1.50544 12.228 1.68299 11.8094C1.86053 11.3909 2.11935 11.0117 2.44444 10.6938L5.02687 8.11142C5.15587 7.98242 5.22834 7.80745 5.22834 7.62501C5.22834 7.44257 5.15587 7.26761 5.02687 7.13861C4.89786 7.0096 4.7229 6.93713 4.54046 6.93713C4.35802 6.93713 4.18306 7.0096 4.05405 7.13861L1.47163 9.72189C0.569068 10.6245 0.0620117 11.8486 0.0620117 13.125C0.0620117 14.4014 0.569068 15.6256 1.47163 16.5281C2.3742 17.4307 3.59834 17.9378 4.87476 17.9378C6.15118 17.9378 7.37532 17.4307 8.27788 16.5281L10.8612 13.944C10.9901 13.815 11.0624 13.6401 11.0623 13.4577C11.0623 13.2754 10.9897 13.1005 10.8607 12.9716C10.7317 12.8427 10.5568 12.7704 10.3745 12.7704C10.1921 12.7705 10.0172 12.843 9.88835 12.972Z" fill="#D9D9D9"/>
</svg>
