<svg width="20" height="20" viewBox="0 0 20 20" fill="none" xmlns="http://www.w3.org/2000/svg">
<g clip-path="url(#clip0_2136_528)">
<path d="M10.0003 18.3334C5.39795 18.3334 1.66699 14.6024 1.66699 10C1.66699 5.39764 5.39795 1.66669 10.0003 1.66669C12.7264 1.66669 15.1467 2.97567 16.6672 4.99938L14.4094 4.99944C13.2342 3.96251 11.6907 3.33335 10.0003 3.33335C6.31843 3.33335 3.33366 6.31812 3.33366 10C3.33366 13.6819 6.31843 16.6667 10.0003 16.6667C11.6912 16.6667 13.235 16.0372 14.4102 14.9999H16.6677C15.1474 17.024 12.7267 18.3334 10.0003 18.3334ZM15.8337 13.3334V10.8334H9.16699V9.16669H15.8337V6.66669L20.0003 10L15.8337 13.3334Z" fill="#5C5C5C"/>
</g>
<defs>
<clipPath id="clip0_2136_528">
<rect width="20" height="20" fill="white"/>
</clipPath>
</defs>
</svg>
