<svg width="17" height="17" viewBox="0 0 17 17" fill="none" xmlns="http://www.w3.org/2000/svg">
<path d="M4.25013 7.79167L6.37513 5.66667V17H4.25013V7.79167ZM7.7918 17H9.9168V8.5L7.7918 6.375V17ZM0.708465 17H2.83346V9.20833L0.708465 11.3333V17ZM16.2273 0H12.0418L13.7694 1.72762L10.9793 4.51775L6.7293 0.26775L0.0327148 6.96504L1.53509 8.46742L6.7293 3.27321L10.9793 7.52321L15.2725 3.23L17.0001 4.95762V0.772792C17.0001 0.346375 16.6545 0 16.2273 0ZM13.4585 10.625H14.8751C15.2661 10.625 15.5835 10.9423 15.5835 11.3333H17.0001C17.0001 10.1617 16.0467 9.20833 14.8751 9.20833V8.5H13.4585V9.20833C12.2869 9.20833 11.3335 10.1617 11.3335 11.3333C11.3335 12.296 12.0234 13.1112 12.9733 13.2692L15.1266 13.6276C15.3915 13.6715 15.5835 13.8982 15.5835 14.1667C15.5835 14.5577 15.2661 14.875 14.8751 14.875H13.4585C13.0675 14.875 12.7501 14.5577 12.7501 14.1667H11.3335C11.3335 15.3382 12.2869 16.2917 13.4585 16.2917V17H14.8751V16.2917C16.0467 16.2917 17.0001 15.3382 17.0001 14.1667C17.0001 13.204 16.3102 12.3888 15.3603 12.2308L13.207 11.8724C12.9421 11.8285 12.7501 11.6018 12.7501 11.3333C12.7501 10.9423 13.0675 10.625 13.4585 10.625Z" fill="#D9D9D9"/>
</svg>
