<svg width="16" height="16" viewBox="0 0 16 16" fill="none" xmlns="http://www.w3.org/2000/svg">
<g clip-path="url(#clip0_2136_778)">
<path d="M14.3444 9.71095C15.2649 9.71095 16.0111 8.96476 16.0111 8.04429C16.0111 7.12381 15.2649 6.37762 14.3444 6.37762C13.4239 6.37762 12.6777 7.12381 12.6777 8.04429C12.6777 8.96476 13.4239 9.71095 14.3444 9.71095Z" fill="#A0A0A0"/>
<path d="M7.99967 9.66645C8.92014 9.66645 9.66633 8.92026 9.66633 7.99979C9.66633 7.07932 8.92014 6.33313 7.99967 6.33313C7.0792 6.33313 6.33301 7.07932 6.33301 7.99979C6.33301 8.92026 7.0792 9.66645 7.99967 9.66645Z" fill="#A0A0A0"/>
<path d="M1.66667 9.66645C2.58714 9.66645 3.33333 8.92026 3.33333 7.99979C3.33333 7.07932 2.58714 6.33313 1.66667 6.33313C0.746192 6.33313 0 7.07932 0 7.99979C0 8.92026 0.746192 9.66645 1.66667 9.66645Z" fill="#A0A0A0"/>
</g>
<defs>
<clipPath id="clip0_2136_778">
<rect width="16" height="16" fill="white"/>
</clipPath>
</defs>
</svg>
