<svg width="17" height="17" viewBox="0 0 17 17" fill="none" xmlns="http://www.w3.org/2000/svg">
<g clip-path="url(#clip0_2136_1909)">
<path d="M9.91673 16.9998C7.66314 16.9974 5.50255 16.1011 3.90902 14.5075C2.31549 12.914 1.41917 10.7534 1.41673 8.49981C1.30836 2.15527 8.52203 -2.11315 14.0194 1.06798L15.6698 1.98314L14.0314 2.91956C13.071 3.47614 12.2821 4.28597 11.7507 5.26058C11.2194 6.23519 10.9661 7.33708 11.0186 8.44587C11.0711 9.55466 11.4273 10.6277 12.0484 11.5478C12.6694 12.4678 13.5313 13.1995 14.54 13.6629L16.2634 14.442L14.7051 15.5102C13.2966 16.4802 11.6269 16.9996 9.91673 16.9998ZM9.91673 2.12481C8.99157 2.12222 8.07692 2.32102 7.23631 2.70742C6.39569 3.09382 5.64925 3.65856 5.04882 4.36242C4.44838 5.06628 4.00834 5.89239 3.75925 6.7834C3.51016 7.67441 3.45799 8.60895 3.60636 9.52215C3.75473 10.4353 4.10009 11.3053 4.61845 12.0716C5.13681 12.8379 5.81576 13.4822 6.60814 13.9598C7.40053 14.4374 8.28736 14.7367 9.20707 14.8371C10.1268 14.9375 11.0573 14.8365 11.9341 14.5412C8.13315 11.6923 7.83069 5.49577 11.3554 2.28702C10.8837 2.17772 10.4009 2.12329 9.91673 2.12481Z" fill="#1A1A1A"/>
</g>
<defs>
<clipPath id="clip0_2136_1909">
<rect width="17" height="17" fill="white"/>
</clipPath>
</defs>
</svg>
