<svg width="17" height="17" viewBox="0 0 17 17" fill="none" xmlns="http://www.w3.org/2000/svg">
<g clip-path="url(#clip0_2136_1945)">
<path d="M17 9.5625V7.4375H14.0632C13.9193 6.67797 13.6203 5.95627 13.1849 5.31746L15.2617 3.24062L13.7594 1.73825L11.6825 3.81508C11.0438 3.37961 10.3221 3.0806 9.5625 2.93675V0H7.4375V2.93675C6.67793 3.0806 5.95621 3.37961 5.31746 3.81508L3.24062 1.73825L1.73825 3.24062L3.81508 5.31746C3.37973 5.95627 3.08073 6.67797 2.93675 7.4375H0V9.5625H2.93675C3.08073 10.322 3.37973 11.0437 3.81508 11.6825L1.73825 13.7594L3.24062 15.2617L5.31746 13.1849C5.95621 13.6204 6.67793 13.9194 7.4375 14.0632V17H9.5625V14.0632C10.3221 13.9194 11.0438 13.6204 11.6825 13.1849L13.7594 15.2617L15.2617 13.7594L13.1849 11.6825C13.6203 11.0437 13.9193 10.322 14.0632 9.5625H17ZM8.5 12.0417C3.81933 11.8929 3.82075 5.10637 8.5 4.95833C13.1807 5.10708 13.1792 11.8936 8.5 12.0417Z" fill="#1A1A1A"/>
</g>
<defs>
<clipPath id="clip0_2136_1945">
<rect width="17" height="17" fill="white"/>
</clipPath>
</defs>
</svg>
