<svg width="17" height="17" viewBox="0 0 17 17" fill="none" xmlns="http://www.w3.org/2000/svg">
<path d="M8.5 1.59375C7.13408 1.59375 5.79882 1.99879 4.6631 2.75766C3.52737 3.51653 2.64218 4.59514 2.11946 5.85709C1.59674 7.11904 1.45998 8.50766 1.72645 9.84734C1.99293 11.187 2.65069 12.4176 3.61655 13.3835C4.5824 14.3493 5.81298 15.0071 7.15266 15.2735C8.49234 15.54 9.88096 15.4033 11.1429 14.8805C12.4049 14.3578 13.4835 13.4726 14.2423 12.3369C15.0012 11.2012 15.4063 9.86593 15.4063 8.5C15.4043 6.66894 14.6761 4.91343 13.3813 3.61868C12.0866 2.32393 10.3311 1.59568 8.5 1.59375ZM8.5 14.3437C7.34422 14.3437 6.21439 14.001 5.25339 13.3589C4.29239 12.7168 3.54338 11.8041 3.10108 10.7363C2.65878 9.6685 2.54306 8.49352 2.76854 7.35994C2.99402 6.22636 3.55058 5.18511 4.36785 4.36784C5.18511 3.55058 6.22637 2.99402 7.35994 2.76854C8.49352 2.54305 9.6685 2.65878 10.7363 3.10108C11.8041 3.54338 12.7168 4.29239 13.3589 5.25339C14.001 6.21439 14.3438 7.34421 14.3438 8.5C14.342 10.0493 13.7258 11.5347 12.6302 12.6302C11.5347 13.7257 10.0493 14.342 8.5 14.3437ZM12.75 8.5C12.75 8.6409 12.694 8.77602 12.5944 8.87565C12.4948 8.97528 12.3596 9.03125 12.2188 9.03125H8.5C8.35911 9.03125 8.22398 8.97528 8.12435 8.87565C8.02472 8.77602 7.96875 8.6409 7.96875 8.5V4.78125C7.96875 4.64035 8.02472 4.50523 8.12435 4.4056C8.22398 4.30597 8.35911 4.25 8.5 4.25C8.6409 4.25 8.77602 4.30597 8.87565 4.4056C8.97528 4.50523 9.03125 4.64035 9.03125 4.78125V7.96875H12.2188C12.3596 7.96875 12.4948 8.02472 12.5944 8.12435C12.694 8.22398 12.75 8.3591 12.75 8.5Z" fill="#969696"/>
</svg>
